
<svg width="111" height="16" viewBox="0 0 111 16" fill="none" xmlns="http://www.w3.org/2000/svg">
  <path d="M79.9799 15.19C78.6599 15.19 77.4465 14.8833 76.3399 14.27C75.2465 13.6567 74.3732 12.8033 73.7199 11.71C73.0799 10.6033 72.7599 9.36333 72.7599 7.99C72.7599 6.61667 73.0799 5.38333 73.7199 4.29C74.3732 3.19667 75.2465 2.34333 76.3399 1.73C77.4465 1.11667 78.6599 0.810001 79.9799 0.810001C81.2999 0.810001 82.5066 1.11667 83.5999 1.73C84.7066 2.34333 85.5732 3.19667 86.1999 4.29C86.8399 5.38333 87.1599 6.61667 87.1599 7.99C87.1599 9.36333 86.8399 10.6033 86.1999 11.71C85.5599 12.8033 84.6932 13.6567 83.5999 14.27C82.5066 14.8833 81.2999 15.19 79.9799 15.19ZM79.9799 12.07C81.0999 12.07 81.9932 11.6967 82.6599 10.95C83.3399 10.2033 83.6799 9.21667 83.6799 7.99C83.6799 6.75 83.3399 5.76333 82.6599 5.03C81.9932 4.28333 81.0999 3.91 79.9799 3.91C78.8465 3.91 77.9399 4.27667 77.2599 5.01C76.5932 5.74333 76.2599 6.73667 76.2599 7.99C76.2599 9.23 76.5932 10.2233 77.2599 10.97C77.9399 11.7033 78.8465 12.07 79.9799 12.07Z" fill="#0E2B22"/>
  <path d="M57.5255 8.01C57.5255 6.62334 57.8255 5.39 58.4255 4.31C59.0255 3.21667 59.8588 2.37 60.9255 1.77C62.0055 1.15667 63.2255 0.850002 64.5855 0.850002C66.2522 0.850002 67.6788 1.29 68.8655 2.17C70.0522 3.05 70.8455 4.25 71.2455 5.77H67.4855C67.2055 5.18334 66.8055 4.73667 66.2855 4.43C65.7788 4.12334 65.1988 3.97 64.5455 3.97C63.4922 3.97 62.6388 4.33667 61.9855 5.07C61.3322 5.80334 61.0055 6.78334 61.0055 8.01C61.0055 9.23667 61.3322 10.2167 61.9855 10.95C62.6388 11.6833 63.4922 12.05 64.5455 12.05C65.1988 12.05 65.7788 11.8967 66.2855 11.59C66.8055 11.2833 67.2055 10.8367 67.4855 10.25H71.2455C70.8455 11.77 70.0522 12.97 68.8655 13.85C67.6788 14.7167 66.2522 15.15 64.5855 15.15C63.2255 15.15 62.0055 14.85 60.9255 14.25C59.8588 13.6367 59.0255 12.79 58.4255 11.71C57.8255 10.63 57.5255 9.39667 57.5255 8.01Z" fill="#0E2B22"/>
  <path d="M55.627 1.01V15.05H52.207V1.01H55.627Z" fill="#0E2B22"/>
  <path d="M50.4906 1.01V3.75H46.7706V15.05H43.3506V3.75H39.6306V1.01H50.4906Z" fill="#0E2B22"/>
  <path d="M37.9116 15.05H34.4916L28.7716 6.39V15.05H25.3516V1.01H28.7716L34.4916 9.71V1.01H37.9116V15.05Z" fill="#0E2B22"/>
  <path d="M17.9513 3.75V6.59H22.5312V9.23H17.9513V12.31H23.1313V15.05H14.5312V1.01H23.1313V3.75H17.9513Z" fill="#0E2B22"/>
  <path d="M5.26 1.01C6.74 1.01 8.03333 1.30334 9.14 1.89C10.2467 2.47667 11.1 3.30334 11.7 4.37C12.3133 5.42334 12.62 6.64334 12.62 8.03C12.62 9.40334 12.3133 10.6233 11.7 11.69C11.1 12.7567 10.24 13.5833 9.12 14.17C8.01333 14.7567 6.72667 15.05 5.26 15.05H0V1.01H5.26ZM5.04 12.09C6.33333 12.09 7.34 11.7367 8.06 11.03C8.78 10.3233 9.14 9.32334 9.14 8.03C9.14 6.73667 8.78 5.73 8.06 5.01C7.34 4.29 6.33333 3.93 5.04 3.93H3.42V12.09H5.04Z" fill="#0E2B22"/>
  <path d="M100.16 2C100.16 0.895431 101.055 0 102.16 0C103.264 0 104.16 0.895431 104.16 2V14C104.16 15.1046 103.264 16 102.16 16C101.055 16 100.16 15.1046 100.16 14V2Z" fill="#8AF85E"/>
  <path d="M96.1599 10C95.0553 10 94.1599 9.10457 94.1599 8C94.1599 6.89543 95.0553 6 96.1599 6H108.16C109.264 6 110.16 6.89543 110.16 8C110.16 9.10457 109.264 10 108.16 10H96.1599Z" fill="#8AF85E"/>
</svg>










