<svg width="140" height="21" viewBox="0 0 140 21" fill="none" xmlns="http://www.w3.org/2000/svg">
<path d="M101.645 19.3047C99.9674 19.3047 98.4254 18.9149 97.019 18.1355C95.6295 17.356 94.5196 16.2715 93.6893 14.882C92.8759 13.4756 92.4692 11.8997 92.4692 10.1543C92.4692 8.40899 92.8759 6.84158 93.6893 5.45208C94.5196 4.06259 95.6295 2.9781 97.019 2.19863C98.4254 1.41916 99.9674 1.02942 101.645 1.02942C103.323 1.02942 104.856 1.41916 106.246 2.19863C107.652 2.9781 108.753 4.06259 109.55 5.45208C110.363 6.84158 110.77 8.40899 110.77 10.1543C110.77 11.8997 110.363 13.4756 109.55 14.882C108.736 16.2715 107.635 17.356 106.246 18.1355C104.856 18.9149 103.323 19.3047 101.645 19.3047ZM101.645 15.3395C103.068 15.3395 104.204 14.8651 105.051 13.9161C105.915 12.9672 106.347 11.7133 106.347 10.1543C106.347 8.57845 105.915 7.32451 105.051 6.39253C104.204 5.44361 103.068 4.96915 101.645 4.96915C100.205 4.96915 99.0524 5.43513 98.1882 6.36711C97.3409 7.29909 96.9173 8.5615 96.9173 10.1543C96.9173 11.7302 97.3409 12.9926 98.1882 13.9416C99.0524 14.8735 100.205 15.3395 101.645 15.3395Z" fill="#0E2B22"/>
<path d="M73.1082 10.1797C73.1082 8.41741 73.4894 6.85 74.2519 5.47745C75.0145 4.08795 76.0735 3.01194 77.4291 2.24941C78.8017 1.46994 80.3522 1.0802 82.0806 1.0802C84.1987 1.0802 86.0118 1.63939 87.5199 2.75776C89.028 3.87614 90.0363 5.40119 90.5446 7.33293H85.7661C85.4103 6.58735 84.9019 6.01969 84.2411 5.62995C83.5971 5.24021 82.86 5.04535 82.0297 5.04535C80.6911 5.04535 79.6066 5.51134 78.7763 6.44331C77.946 7.37529 77.5308 8.62076 77.5308 10.1797C77.5308 11.7386 77.946 12.9841 78.7763 13.9161C79.6066 14.8481 80.6911 15.3141 82.0297 15.3141C82.86 15.3141 83.5971 15.1192 84.2411 14.7295C84.9019 14.3397 85.4103 13.7721 85.7661 13.0265H90.5446C90.0363 14.9582 89.028 16.4833 87.5199 17.6016C86.0118 18.7031 84.1987 19.2538 82.0806 19.2538C80.3522 19.2538 78.8017 18.8725 77.4291 18.11C76.0735 17.3305 75.0145 16.2545 74.2519 14.882C73.4894 13.5094 73.1082 11.942 73.1082 10.1797Z" fill="#0E2B22"/>
<path d="M70.6953 1.28357V19.1267H66.3489V1.28357H70.6953Z" fill="#0E2B22"/>
<path d="M64.1675 1.28357V4.76578H59.4398V19.1267H55.0934V4.76578H50.3657V1.28357H64.1675Z" fill="#0E2B22"/>
<path d="M48.181 19.1267H43.8346L36.5652 8.1209V19.1267H32.2188V1.28357H36.5652L43.8346 12.3402V1.28357H48.181V19.1267Z" fill="#0E2B22"/>
<path d="M22.8139 4.76578V8.37508H28.6346V11.7302H22.8139V15.6445H29.3971V19.1267H18.4675V1.28357H29.3971V4.76578H22.8139Z" fill="#0E2B22"/>
<path d="M6.68483 1.28357C8.56573 1.28357 10.2094 1.65636 11.6158 2.40194C13.0223 3.14753 14.1068 4.19812 14.8693 5.55373C15.6488 6.89239 16.0385 8.44286 16.0385 10.2051C16.0385 11.9505 15.6488 13.501 14.8693 14.8566C14.1068 16.2122 13.0138 17.2628 11.5904 18.0084C10.184 18.7539 8.54879 19.1267 6.68483 19.1267H0V1.28357H6.68483ZM6.40524 15.3649C8.04891 15.3649 9.32826 14.9159 10.2433 14.0178C11.1583 13.1197 11.6158 11.8488 11.6158 10.2051C11.6158 8.56148 11.1583 7.28212 10.2433 6.36709C9.32826 5.45206 8.04891 4.99454 6.40524 4.99454H4.34641V15.3649H6.40524Z" fill="#0E2B22"/>
<path d="M127.291 2.54176C127.291 1.13798 128.429 0 129.833 0V0C131.237 0 132.375 1.13798 132.375 2.54176V17.7923C132.375 19.1961 131.237 20.3341 129.833 20.3341V20.3341C128.429 20.3341 127.291 19.1961 127.291 17.7923V2.54176Z" fill="#0F7B57"/>
<path d="M122.208 12.7087C120.804 12.7087 119.666 11.5708 119.666 10.167V10.167C119.666 8.7632 120.804 7.62522 122.208 7.62522H137.458C138.862 7.62522 140 8.7632 140 10.167V10.167C140 11.5708 138.862 12.7087 137.458 12.7087H122.208Z" fill="#0F7B57"/>
</svg>
